HIERARCHY
ROOT Hips
{
  OFFSET 279.157 85.6768 304.565
  CHANNELS 6 Xposition Yposition Zposition Zrotation Xrotation Yrotation
  JOINT LeftUpLeg
  {
    OFFSET 8.64259 1.95398 -2.38835
    CHANNELS 3 Zrotation Xrotation Yrotation
    JOINT LeftLeg
    {
      OFFSET 43.7702 0 0
      CHANNELS 3 Zrotation Xrotation Yrotation
      JOINT LeftFoot
      {
        OFFSET 40.6238 0 0
        CHANNELS 3 Zrotation Xrotation Yrotation
        JOINT LeftToeBase
        {
          OFFSET 12.7242 0 0
          CHANNELS 3 Zrotation Xrotation Yrotation
          End Site
          {
            OFFSET 0 0 0
          }
        }
      }
    }
  }
  JOINT RightUpLeg
  {
    OFFSET -8.2249 1.95398 -2.59336
    CHANNELS 3 Zrotation Xrotation Yrotation
    JOINT RightLeg
    {
      OFFSET 43.5653 0 0
      CHANNELS 3 Zrotation Xrotation Yrotation
      JOINT RightFoot
      {
        OFFSET 40.6238 0 0
        CHANNELS 3 Zrotation Xrotation Yrotation
        JOINT RightToeBase
        {
          OFFSET 12.7242 0 0
          CHANNELS 3 Zrotation Xrotation Yrotation
          End Site
          {
            OFFSET 0 0 0
          }
        }
      }
    }
  }
  JOINT Spine
  {
    OFFSET 0.165834 0.87714 6.61349
    CHANNELS 3 Zrotation Xrotation Yrotation
    JOINT Spine1
    {
      OFFSET 7.38963 1.71661e-005 0
      CHANNELS 3 Zrotation Xrotation Yrotation
      JOINT Spine2
      {
        OFFSET 11.9445 1.14441e-005 0
        CHANNELS 3 Zrotation Xrotation Yrotation
        JOINT Spine3
        {
          OFFSET 14.7254 4.19617e-005 0
          CHANNELS 3 Zrotation Xrotation Yrotation
          JOINT Spine4
          {
            OFFSET 10.9679 0 0
            CHANNELS 3 Zrotation Xrotation Yrotation
            JOINT RightShoulder
            {
              OFFSET 2.46616 -1.6653 3.69651
              CHANNELS 3 Zrotation Xrotation Yrotation
              JOINT RightArm
              {
                OFFSET 13.0012 0 0
                CHANNELS 3 Zrotation Xrotation Yrotation
                JOINT RightForeArm
                {
                  OFFSET 28.7848 1.52588e-005 0
                  CHANNELS 3 Zrotation Xrotation Yrotation
                  JOINT RightHand
                  {
                    OFFSET 26.5688 1.52588e-005 0
                    CHANNELS 3 Zrotation Xrotation Yrotation
                    End Site
                    {
                      OFFSET 0 0 0
                    }
                  }
                }
              }
            }
            JOINT LeftShoulder
            {
              OFFSET 2.38034 -1.29275 -3.7523
              CHANNELS 3 Zrotation Xrotation Yrotation
              JOINT LeftArm
              {
                OFFSET 16.3182 6.10351e-005 0
                CHANNELS 3 Zrotation Xrotation Yrotation
                JOINT LeftForeArm
                {
                  OFFSET 27.0901 0 0
                  CHANNELS 3 Zrotation Xrotation Yrotation
                  JOINT LeftHand
                  {
                    OFFSET 24.5451 1.52588e-005 0
                    CHANNELS 3 Zrotation Xrotation Yrotation
                    End Site
                    {
                      OFFSET 0 0 0
                    }
                  }
                }
              }
            }
            JOINT Neck
            {
              OFFSET 5.0226 -0.0266342 0
              CHANNELS 3 Zrotation Xrotation Yrotation
              JOINT Head
              {
                OFFSET 6.69364 2.86102e-005 0
                CHANNELS 3 Zrotation Xrotation Yrotation
                End Site
                {
                  OFFSET 0 0 0
                }
              }
            }
          }
        }
      }
    }
  }
}
MOTION
Frames:	18
Frame Time:	0.0416667
22.95 101.054 -329.474 91.9512 -87.9721 91.2761 -172.078 -3.65013 93.7844 -11.799 12.0126 -0.128088 69.1622 5.87592 -2.10965 35.3069 2.3555 6.83502 175.572 -5.58828 92.88 -12.4809 -1.20752 -0.0154182 73.8772 -8.63437 -1.06334 22.5289 1.16782 5.25974 -0.225332 7.90925 -90.2965 11.0538 -0.586 -0.533529 -0.617141 -0.608909 -0.507226 -23.152 -0.398562 -0.68497 -3.13934 -0.398566 -0.684976 89.5915 -30.9042 -107.216 46.2271 -5.39419 25.2942 -26.8226 -16.726 -51.7847 -22.5373 1.01863 -20.6348 -90.6321 -51.7868 78.1792 -21.6404 39.7412 -3.76773 -11.6023 -18.8658 -56.5054 28.063 13.9127 44.2178 19.9622 -1.15471 -5.09157 -7.48314 0.304811 3.53806 
22.8765 100.702 -329.072 75.7346 -85.6057 73.4904 -173.861 -2.03666 91.6268 -13.1808 12.1889 0.712458 69.4557 6.97901 -1.41625 36.3844 2.97706 6.99163 174.22 -3.34535 91.3544 -15.2018 -0.343405 0.555646 75.5355 -9.01187 -1.36396 22.958 0.798103 6.5902 -0.510243 7.8224 -90.0901 11.229 -1.05736 -0.0750117 -0.441493 -1.05964 -0.028404 -22.9797 -0.985937 -0.389352 -2.96707 -0.985933 -0.389361 89.4458 -31.379 -107.317 46.8447 -4.733 28.9124 -27.0701 -18.474 -56.3908 -25.9433 0.989061 -18.9428 -89.0636 -49.6951 80.0635 -23.6496 35.8181 0.559268 4.34942 -4.85446 -51.1575 37.7528 5.9948 8.40002 20.7663 -1.56179 -7.34248 -7.78106 0.597244 4.71207 
22.6013 100.18 -328.277 74.4446 -84.9071 71.6972 -174.569 -0.419263 91.1088 -15.9326 11.6817 1.00905 70.8513 9.45019 1.50539 36.3347 3.1027 5.94592 173.801 -2.24276 91.0475 -18.1296 0.380187 0.777668 77.61 -9.47561 -0.971478 23.2966 0.925098 5.34879 -0.542229 7.85601 -90.1497 11.1611 -1.14873 -0.185616 -0.509364 -1.15578 -0.13488 -23.0479 -1.03983 -0.522315 -3.03522 -1.03982 -0.522303 90.0411 -30.3491 -106.544 47.9649 -4.83388 31.8529 -27.1788 -20.7724 -58.6147 -30.7925 0.771658 -16.273 -87.3293 -50.6263 82.8383 -18.6857 22.7344 -0.153428 26.4077 20.0879 -55.0701 1.51697 -1.06895 -15.7357 22.0731 -1.17029 -5.20762 -8.04564 0.42967 3.15173 
22.2122 99.7182 -327.146 73.9147 -83.6114 71.2816 -174.535 2.82532 91.3933 -23.0223 11.3963 0.973697 71.2388 9.60124 2.00045 36.6516 3.15866 6.8242 173.963 -2.60602 91.5576 -18.3195 2.53392 1.03967 78.9371 -9.65192 0.307879 23.1303 0.754991 6.55577 -0.547692 7.86359 -90.2749 11.1451 -1.21779 -0.428587 -0.525368 -1.23547 -0.374575 -23.0635 -1.03268 -0.774795 -3.05089 -1.03268 -0.774807 89.9334 -29.7984 -106.969 48.7251 -3.53722 34.363 -30.3214 -22.7894 -60.6042 -33.4972 0.140428 -13.8491 -87.5476 -50.8175 82.544 -20.2457 25.2517 4.5264 27.4573 13.1886 -61.0464 -0.880176 -0.281816 -18.0159 22.5731 -1.01053 -3.35572 -7.86041 0.0422429 2.10211 
21.853 99.5144 -326.093 77.6235 -79.7177 74.5561 -175.999 9.4188 90.314 -33.465 8.86483 1.99538 70.8117 8.45956 1.43934 34.5342 2.30003 4.42386 173.607 -3.55709 91.9816 -17.0982 5.40684 1.82891 79.164 -10.2066 -1.03675 23.0398 0.750233 6.72963 -0.81185 7.89439 -90.3268 11.082 -1.76754 -0.479451 -0.587758 -1.78693 -0.401188 -23.13 -1.54172 -0.988607 -3.11732 -1.54171 -0.988602 89.7381 -29.5621 -107.449 49.0187 -2.69028 35.1502 -32.1622 -26.4544 -61.2174 -35.855 0.177031 -14.505 -87.2013 -49.7429 82.8806 -22.1749 26.2256 7.74084 28.4039 9.52639 -64.7693 -0.169915 -0.386557 -19.678 24.1846 -1.73907 -3.52262 -8.27856 -0.596796 2.81462 
21.5979 99.0557 -324.808 78.8897 -76.1652 75.6218 -177.138 14.8902 89.3059 -42.2688 10.8929 2.59807 70.3605 8.85458 4.83875 32.6805 1.63454 2.30893 173.618 -4.30106 92.6365 -16.6487 9.85036 2.45293 80.5487 -10.0435 0.191403 23.0351 1.10296 4.78951 -0.933106 7.95651 -90.4136 10.9559 -2.04907 -0.628061 -0.713494 -2.07472 -0.537249 -23.2577 -1.76556 -1.215 -3.24501 -1.76556 -1.215 88.7013 -30.2498 -109.219 48.2756 0.107849 35.5736 -30.5936 -28.04 -59.1716 -40.2233 0.901285 -15.958 -87.3573 -48.3152 82.3973 -24.1759 26.7551 10.259 29.6224 6.96296 -67.8678 0.148562 -0.442142 -20.263 26.2172 -2.83449 -4.09405 -8.14738 -1.43086 3.9676 
21.3374 98.6519 -323.231 76.886 -73.8786 73.4324 -177.4 20.3279 87.8778 -49.2001 8.55833 2.45764 71.0306 9.11878 5.25651 30.6259 0.816727 0.765803 174.038 -4.95113 93.2485 -15.032 11.7021 2.55391 80.3437 -9.75011 0.219963 24.1123 0.77628 4.81381 -0.863673 7.91001 -90.4786 11.0477 -1.94108 -0.765513 -0.621963 -1.9729 -0.679321 -23.164 -1.62129 -1.3136 -3.15135 -1.62128 -1.31358 88.7904 -30.676 -108.868 47.6621 1.25673 34.7225 -32.5096 -28.8299 -60.6833 -41.8971 0.595503 -15.0297 -87.4235 -47.9081 82.224 -25.0598 27.872 13.251 31.0904 4.71294 -70.796 1.70933 -0.620549 -19.1386 27.7449 -3.92833 -3.99935 -8.73985 -2.50189 4.42853 
21.0781 98.1725 -321.537 73.3228 -72.9351 69.9489 -176.532 25.625 86.5021 -54.3552 5.82146 1.66086 71.8486 9.01565 4.21794 29.7774 0.40421 0.576349 174.9 -6.05318 94.1684 -11.9807 11.4666 2.16004 79.5612 -10.3636 -1.77359 25.2364 0.135198 6.99701 -0.657457 7.8896 -90.6396 11.0863 -1.60542 -1.11756 -0.584095 -1.65305 -1.04582 -23.1204 -1.19536 -1.54836 -3.10777 -1.19536 -1.54836 88.6832 -29.8635 -109.417 46.4328 3.62202 32.9448 -35.2191 -25.9491 -64.149 -38.673 0.414679 -15.0964 -87.0707 -49.2477 82.9933 -24.2425 28.7151 14.9228 33.4883 3.68809 -73.0293 3.62548 -0.822699 -18.2631 30.1267 -4.3473 -1.76222 -10.0356 -3.67912 3.24793 
20.9009 97.9149 -319.72 66.5039 -73.2114 63.068 -174.861 30.4136 84.7165 -56.7594 4.3216 0.303435 72.0688 8.72958 2.76498 29.3083 0.273249 0.0304605 175.281 -4.07802 94.9221 -13.3811 4.46353 1.36419 75.7499 -9.62287 -10.2629 32.9715 -1.09013 -3.82474 -0.284031 7.8001 -90.6652 11.2674 -0.874896 -1.23783 -0.403819 -0.928529 -1.19813 -22.9351 -0.462479 -1.4435 -2.92246 -0.462481 -1.44352 87.997 -30.5968 -110.445 43.3583 7.07334 30.258 -37.3239 -19.1747 -69.0866 -36.1064 -0.207433 -12.6226 -87.7313 -48.9331 81.9366 -25.8698 27.5962 18.8694 36.2368 2.72213 -75.3791 5.25583 -0.993256 -17.8485 31.1383 -5.22702 -1.66004 -10.049 -4.55765 3.541 
20.4292 97.6856 -317.635 60.2478 -74.1043 57.2033 -172.655 34.1982 83.5948 -57.8905 6.28892 -1.04866 72.2926 8.99942 3.12484 29.7104 0.534319 -0.180805 175.335 0.626733 96.5628 -22.0859 0.494811 0.841359 63.2983 1.91383 -13.3077 57.0781 -10.7743 -8.10339 0.124388 7.82289 -90.7556 11.226 -0.104038 -1.4955 -0.44578 -0.169746 -1.48947 -22.9743 0.350179 -1.45765 -2.96163 0.350182 -1.45764 87.6947 -30.8439 -110.924 38.6646 16.6995 32.1263 -43.0387 -2.29679 -87.5116 -19.914 -1.73851 -5.7293 -87.0682 -49.0436 82.9641 -26.4761 27.282 21.6031 34.9491 1.18475 -75.8875 7.95194 -1.44739 -19.3417 32.9635 -5.58146 -0.880631 -10.566 -5.20619 3.52414 
19.978 96.9176 -315.596 50.0912 -74.3315 46.3015 -169.84 39.2196 80.7376 -58.7104 7.74667 -2.6984 73.1393 9.30076 2.62462 31.1503 0.917278 1.67046 174.891 5.86007 94.7412 -29.2051 -2.73879 0.440794 50.3075 13.4178 -9.1557 78.3769 -19.1501 -6.0446 0.511957 7.73859 -90.6973 11.398 0.693429 -1.45717 -0.273578 0.628633 -1.48628 -22.8054 1.09926 -1.18146 -2.79278 1.09927 -1.18145 87.8454 -31.4794 -110.36 34.651 18.7178 25.8062 -46.2065 2.77009 -94.6568 -19.8362 -2.16885 -2.83875 -87.218 -48.9657 82.7232 -28.0697 25.4495 25.9141 36.4997 0.319707 -77.4249 10.0289 -1.75163 -19.5528 34.6884 -5.68526 -0.0842316 -10.844 -5.64307 3.53603 
20.3248 96.1641 -312.994 55.4819 -75.3402 53.9176 -169.541 41.3561 80.8158 -60.5401 8.97592 -2.6304 74.459 9.89864 3.17479 31.9806 1.38574 1.58889 175.491 0.817797 96.5076 -24.1847 -1.46834 1.28878 32.8109 22.3752 -2.17522 98.8193 -23.4433 2.50097 0.65619 8.05043 -91.12 10.7783 0.789901 -2.30351 -0.894459 0.687772 -2.33603 -23.4192 1.44557 -1.95982 -3.40651 1.44557 -1.95983 87.8847 -31.4428 -110.3 29.9506 16.0047 13.1217 -38.8632 4.58094 -92.8047 -21.1469 -1.91958 -1.95865 -87.0154 -49.8813 83.1832 -29.1933 23.8466 30.3922 37.5762 -0.782518 -78.8777 11.3701 -1.97184 -19.8676 35.7527 -4.98056 2.03621 -11.0347 -5.83003 2.2454 
20.3896 95.1667 -310.264 56.6281 -75.8446 55.5015 -168.741 44.1937 79.0594 -61.161 8.83548 -3.0239 75.3524 10.2454 3.35753 31.5368 1.27602 0.922986 176.196 -5.13635 96.2397 -16.1078 1.52142 1.48017 18.432 26.3029 3.2582 113.157 -23.0811 11.1912 0.782656 8.23919 -91.237 10.4002 0.992468 -2.54451 -1.27297 0.87957 -2.5857 -23.7962 1.71114 -2.12889 -3.78353 1.71117 -2.12889 87.2564 -32.2453 -111.154 23.93 21.7808 5.07396 -42.0125 5.16013 -96.6704 -16.267 -1.75823 -3.45176 -86.5944 -48.6258 83.6173 -31.5651 22.8624 35.2277 40.2708 -2.23571 -80.8541 15.0087 -2.23052 -18.3032 36.5466 -4.70017 2.17725 -10.9635 -5.68069 2.77965 
20.4469 93.7694 -307.7 54.5168 -76.5185 52.9063 -167.355 47.6558 76.2651 -61.6012 6.97866 -3.66287 76.7488 10.5422 2.45775 32.2912 1.85862 -0.0332831 175.949 -9.7998 94.9843 -10.4727 5.5824 1.76084 9.96948 27.7144 5.10256 122.41 -19.2194 19.7613 0.978918 8.38904 -91.2668 10.105 1.37368 -2.63013 -1.56802 1.25663 -2.68799 -24.0942 2.10047 -2.096 -4.08155 2.10046 -2.096 87.6865 -31.7575 -110.548 20.7421 26.1777 -5.08263 -38.7089 2.43719 -97.7504 -20.546 -1.62895 -4.8331 -86.5595 -47.9657 83.5635 -32.9298 23.223 39.4672 40.9524 -5.28863 -82.8648 14.6068 -2.23854 -18.6908 37.2426 -4.3909 3.95027 -10.7728 -6.18133 2.27355 
20.4396 92.3438 -305.008 45.8767 -78.2326 44.0261 -165.909 51.0802 74.6002 -61.4723 6.97489 -4.29399 78.5118 11.7967 2.86552 32.4912 1.92231 0.192411 175.394 -12.9716 93.7578 -8.20827 6.88246 1.66936 8.04682 27.3885 4.44595 125.362 -15.0936 25.3787 1.38291 8.52068 -91.2386 9.85328 2.19483 -2.63322 -1.8187 2.07686 -2.72722 -24.3566 2.88461 -1.85195 -4.34396 2.8846 -1.85196 88.1634 -28.7065 -110.95 20.4347 32.1656 -14.0454 -35.6545 -3.89507 -96.0612 -28.8634 -0.980377 -8.61414 -86.1677 -46.7833 83.9799 -33.9225 24.4039 43.6163 43.9344 -8.88653 -85.6247 16.7183 -2.53462 -18.8331 38.7138 -3.73615 6.31342 -11.5379 -6.67384 1.22585 
20.4304 91.2319 -301.934 30.0294 -79.5878 26.9295 -164.804 53.7298 73.3605 -60.2279 8.16968 -4.95111 80.179 12.861 2.14313 30.8798 0.849125 1.25604 173.756 -13.9318 90.9295 -9.38305 5.1767 1.2025 9.97836 26.341 3.76576 124.645 -11.561 29.2652 1.8581 8.61938 -90.9819 9.66463 3.26064 -2.20137 -2.00433 3.16062 -2.34279 -24.5673 3.7713 -1.11875 -4.55465 3.77132 -1.11874 88.8892 -24.5463 -111.417 22.2782 37.7789 -21.5478 -32.9722 -11.0205 -93.2704 -36.2554 0.457135 -13.2903 -85.9518 -44.7813 83.9966 -34.7922 25.4975 46.5793 47.0441 -12.3355 -87.5118 14.5277 -2.48433 -20.3927 41.0343 -3.58226 7.49453 -12.8674 -7.2176 0.646683 
20.3402 90.5541 -298.178 11.9998 -79.7981 7.20678 -164.849 55.3611 73.0153 -58.7254 10.6251 -5.24272 79.9561 12.9972 2.29969 25.4658 -1.41407 -1.36146 172.16 -14.5098 87.8675 -10.7362 3.55193 0.323568 14.3974 24.4019 2.68655 120.342 -8.56984 32.3476 2.31683 8.71447 -90.6683 9.47851 4.31878 -1.65048 -2.18655 4.24196 -1.83923 -24.7788 4.61477 -0.273638 -4.76616 4.61476 -0.273641 89.9973 -21.093 -110.705 24.3627 41.444 -28.5994 -34.8305 -18.0737 -92.5651 -42.7598 0.124246 -12.1691 -86.5864 -44.2026 82.8791 -34.2104 25.8318 48.4153 47.2162 -14.9418 -89.1259 16.1357 -2.68323 -20.1847 44.5589 -3.83643 8.09899 -14.6297 -8.06168 0.842988 
20.0976 90.2225 -293.599 -2.02535 -78.5849 -8.43873 -165.7 55.693 73.6942 -57.0858 14.0269 -5.32684 78.8175 12.5567 2.50882 24.8207 -2.28703 0.61097 170.819 -14.5235 85.1786 -12.1016 1.05658 -0.564461 19.6814 21.5602 2.05944 113.19 -7.23235 33.55 2.53762 8.74671 -90.1918 9.40263 4.97397 -0.749975 -2.25914 4.93614 -0.968697 -24.87 4.96883 0.783377 -4.85734 4.96884 0.783382 90.5918 -16.9036 -111.571 28.7783 44.194 -32.8408 -37.0599 -21.1967 -94.6522 -47.8664 -0.635629 -10.2671 -85.7332 -41.645 83.827 -34.6898 25.1382 48.385 46.3352 -16.1428 -90.4653 16.9164 -2.83467 -20.4142 49.6932 -3.82949 7.1806 -17.3263 -7.91408 0.729137 
